<svg viewBox="0.583 41.55 141.617 138.365" width="32" height="32" xmlns="http://www.w3.org/2000/svg">
  <path d="M995 1383 c-585 -10 -891 -20 -912 -32 -45 -23 -55 -64 -63 -243 -4 -92 -5 -202 -2 -246 2 -43 -1 -102 -7 -130 -8 -41 -7 -83 5 -189 8 -76 16 -190 18 -253 3 -120 11 -154 52 -207 39 -52 65 -55 415 -57 239 -1 321 -4 331 -13 16 -17 105 -16 258 2 213 25 233 37 293 163 l39 85 -6 331 c-7 387 -28 642 -58 699 -13 25 -112 87 -145 90 -16 2 -113 2 -218 0z m92 -137 c33 -29 37 -39 41 -92 5 -72 -13 -94 -82 -101 -39 -5 -51 -1 -81 21 -29 23 -35 33 -35 66 0 73 44 140 92 140 18 0 41 -12 65 -34z m-372 -221 c60 -30 119 -55 131 -55 11 0 39 13 61 29 38 27 44 29 83 19 23 -6 44 -17 47 -25 3 -8 -17 -67 -46 -131 -28 -64 -58 -137 -66 -162 -34 -97 -59 -109 -143 -66 -48 24 -258 86 -291 86 -10 0 -71 -55 -138 -125 -73 -76 -127 -125 -139 -125 -33 0 -92 70 -114 135 -12 34 -17 62 -11 68 9 9 48 -9 93 -45 l27 -21 38 26 c21 14 73 59 115 100 43 40 101 86 129 102 l52 28 97 -48 c57 -28 104 -45 114 -42 12 5 16 20 16 61 0 67 -15 81 -127 121 -108 38 -128 58 -103 106 17 31 57 23 175 -36z m-445 -91 c0 -3 -8 -18 -18 -32 -10 -15 -22 -35 -25 -44 -8 -22 -36 -23 -44 -2 -3 9 1 31 10 50 14 28 22 34 47 34 16 0 30 -3 30 -6z m45 -46 c-10 -45 -24 -70 -36 -63 -15 10 -10 57 8 77 25 27 35 22 28 -14z m790 -128 c14 -19 39 -70 56 -114 60 -157 35 -311 -70 -416 -99 -99 -247 -141 -371 -107 -82 23 -178 75 -229 122 -44 41 -54 58 -81 141 -17 51 -30 101 -28 109 6 31 22 16 38 -37 27 -84 76 -172 112 -200 116 -88 254 -117 392 -82 81 21 129 53 172 119 87 131 78 288 -26 442 -52 76 -20 97 35 23z m-54 -22 c17 -24 45 -72 61 -106 62 -136 29 -290 -85 -387 -43 -37 -72 -48 -174 -66 -53 -9 -71 -8 -139 11 -47 12 -102 37 -140 62 -53 35 -69 53 -98 108 -19 36 -42 92 -51 126 l-17 60 30 60 c50 100 48 99 182 48 153 -60 228 -84 255 -84 28 0 45 26 85 129 19 49 37 81 46 81 7 0 28 -19 45 -42z m228 -52 c15 -18 47 -174 37 -183 -12 -13 -26 13 -46 85 -28 101 -25 139 9 98z m96 -40 c10 -46 10 -59 -1 -63 -12 -4 -34 47 -34 78 0 25 29 13 35 -15z" transform="matrix(0.1, 0, 0, -0.1, 0, 180)"/>
</svg>